HIERARCHY
ROOT Hips
{
	OFFSET 0.000000 0.000000 0.000000
	CHANNELS 6 Xposition Yposition Zposition Zrotation Yrotation Xrotation 
	JOINT LHipJoint
	{
		OFFSET 0.000000 0.000000 0.000000
		CHANNELS 3 Zrotation Yrotation Xrotation
		JOINT LeftUpLeg
		{
			OFFSET 1.363060 -1.794630 0.839290
			CHANNELS 3 Zrotation Yrotation Xrotation
			JOINT LeftLeg
			{
				OFFSET 2.448110 -6.726130 0.000000
				CHANNELS 3 Zrotation Yrotation Xrotation
				JOINT LeftFoot
				{
					OFFSET 2.562200 -7.039590 0.000000
					CHANNELS 3 Zrotation Yrotation Xrotation
					JOINT LeftToeBase
					{
						OFFSET 0.157640 -0.433110 2.322550
						CHANNELS 3 Zrotation Yrotation Xrotation
						End Site
						{
							OFFSET 0.000000 0.000000 0.000000
						}
					}
				}
			}
		}
	}
	JOINT RHipJoint
	{
		OFFSET 0.000000 0.000000 0.000000
		CHANNELS 3 Zrotation Yrotation Xrotation
		JOINT RightUpLeg
		{
			OFFSET -1.305520 -1.794630 0.839290
			CHANNELS 3 Zrotation Yrotation Xrotation
			JOINT RightLeg
			{
				OFFSET -2.542530 -6.985550 0.000000
				CHANNELS 3 Zrotation Yrotation Xrotation
				JOINT RightFoot
				{
					OFFSET -2.568260 -7.056230 0.000000
					CHANNELS 3 Zrotation Yrotation Xrotation
					JOINT RightToeBase
					{
						OFFSET -0.164730 -0.452590 2.363150
						CHANNELS 3 Zrotation Yrotation Xrotation
						End Site
						{
							OFFSET 0.000000 0.000000 0.000000
						}
					}
				}
			}
		}
	}
	JOINT LowerBack
	{
		OFFSET 0.000000 0.000000 0.000000
		CHANNELS 3 Zrotation Yrotation Xrotation
		JOINT Spine
		{
			OFFSET 0.028270 2.035590 -0.193380
			CHANNELS 3 Zrotation Yrotation Xrotation
			JOINT Spine1
			{
				OFFSET 0.056720 2.048850 -0.042750
				CHANNELS 3 Zrotation Yrotation Xrotation
				JOINT Neck
				{
					OFFSET 0.000000 0.000000 0.000000
					CHANNELS 3 Zrotation Yrotation Xrotation
					JOINT Neck1
					{
						OFFSET -0.054170 1.746240 0.172020
						CHANNELS 3 Zrotation Yrotation Xrotation
						JOINT Head
						{
							OFFSET 0.104070 1.761360 -0.123970
							CHANNELS 3 Zrotation Yrotation Xrotation
							End Site
							{
								OFFSET 0.000000 0.000000 0.000000
							}
						}
					}
				}
				JOINT LeftShoulder
				{
					OFFSET 0.000000 0.000000 0.000000
					CHANNELS 3 Zrotation Yrotation Xrotation
					JOINT LeftArm
					{
						OFFSET 3.362410 1.200890 -0.311210
						CHANNELS 3 Zrotation Yrotation Xrotation
						JOINT LeftForeArm
						{
							OFFSET 4.983000 -0.000000 -0.000000
							CHANNELS 3 Zrotation Yrotation Xrotation
							JOINT LeftHand
							{
								OFFSET 3.483560 -0.000000 -0.000000
								CHANNELS 3 Zrotation Yrotation Xrotation
								JOINT LeftFingerBase
								{
									OFFSET 0.000000 0.000000 0.000000
									CHANNELS 3 Zrotation Yrotation Xrotation
									JOINT LeftHandIndex1
									{
										OFFSET 0.715260 -0.000000 -0.000000
										CHANNELS 3 Zrotation Yrotation Xrotation
										End Site
										{
											OFFSET 0.000000 0.000000 0.000000
										}
									}
								}
								JOINT LThumb
								{
									OFFSET 0.000000 0.000000 0.000000
									CHANNELS 3 Zrotation Yrotation Xrotation
									End Site
									{
										OFFSET 0.000000 0.000000 0.000000
									}
								}
							}
						}
					}
				}
				JOINT RightShoulder
				{
					OFFSET 0.000000 0.000000 0.000000
					CHANNELS 3 Zrotation Yrotation Xrotation
					JOINT RightArm
					{
						OFFSET -3.136600 1.374050 -0.404650
						CHANNELS 3 Zrotation Yrotation Xrotation
						JOINT RightForeArm
						{
							OFFSET -5.241900 -0.000000 -0.000000
							CHANNELS 3 Zrotation Yrotation Xrotation
							JOINT RightHand
							{
								OFFSET -3.444170 -0.000000 -0.000000
								CHANNELS 3 Zrotation Yrotation Xrotation
								JOINT RightFingerBase
								{
									OFFSET 0.000000 0.000000 0.000000
									CHANNELS 3 Zrotation Yrotation Xrotation
									JOINT RightHandIndex1
									{
										OFFSET -0.622530 -0.000000 -0.000000
										CHANNELS 3 Zrotation Yrotation Xrotation
										End Site
										{
											OFFSET 0.000000 0.000000 0.000000
										}
									}
								}
								JOINT RThumb
								{
									OFFSET 0.000000 0.000000 0.000000
									CHANNELS 3 Zrotation Yrotation Xrotation
									End Site
									{
										OFFSET 0.000000 0.000000 0.000000
									}
								}
							}
						}
					}
				}
			}
		}
	}
}
MOTION
Frames: 11
Frame Time: 0.033333
-2.164344 16.580642 23.306189 1.606865 6.233932 9.900629 -5.012531 4.725773 -6.009366 -16.765748 -2.069302 -4.211064 -9.096924 -12.887498 -33.126770 0.408969 12.528574 27.378565 0.000000 0.000000 0.000000 14.180328 2.575218 -3.023738 -0.588161 -3.059823 -1.811215 4.832312 -28.178101 44.232214 14.134720 -21.487177 0.471039 0.000000 0.000000 0.000000 -6.951572 -1.288243 17.160117 3.886841 -1.301439 -5.573254 2.217050 -0.783818 -5.221895 -1.941421 0.537876 -1.799751 5.043789 -0.175037 5.904532 0.000000 0.000000 0.000000 9.173908 12.419802 7.433797 -71.773690 -6.040524 24.058963 -24.338322 -76.004972 0.580677 -0.058476 -14.818744 0.285811 -0.038903 -14.827025 0.000000 0.000000 0.000000 0.000000 0.000000 0.000000 0.000000 -5.252957 -17.020549 5.850005 67.907470 6.655716 18.678000 26.810457 66.114405 0.334050 0.571953 11.173886 0.165599 0.564770 11.178319 0.000000 0.000000 0.000000 0.000000 0.000000 0.000000 0.000000 
-2.181160 16.603481 23.498734 1.877774 6.110080 10.095481 -4.607612 4.581278 -6.387606 -17.495511 -1.759169 -3.541167 -8.722629 -12.624726 -32.481965 0.257762 11.494279 25.204832 0.000000 0.000000 0.000000 14.158048 2.530041 -2.784891 -0.659955 -2.990561 -1.830470 4.497576 -28.027341 44.144802 14.622605 -23.106702 2.760712 0.000000 0.000000 0.000000 -7.071986 -1.140232 17.409412 3.624589 -1.340175 -5.257250 2.149873 -0.710738 -5.810800 -2.334064 0.591031 -1.067053 5.141993 -0.218940 6.362106 0.000000 0.000000 0.000000 9.267684 12.993509 7.151418 -71.686415 -6.223218 24.760838 -25.338645 -75.487339 0.609544 -0.300333 -14.781581 0.300463 -0.285529 -14.790842 0.000000 0.000000 0.000000 0.000000 0.000000 0.000000 0.000000 -5.026966 -17.724636 5.446757 67.759950 6.482175 19.450242 26.862455 66.817627 0.350276 0.638255 11.333797 0.173668 0.631793 11.338493 0.000000 0.000000 0.000000 0.000000 0.000000 0.000000 0.000000 
-2.194675 16.629990 23.690839 2.140118 5.950716 10.296012 -4.220134 4.477486 -6.773877 -18.217365 -1.468508 -2.941223 -8.367656 -12.304542 -31.700870 0.129015 10.450781 22.959847 0.000000 0.000000 0.000000 14.154349 2.414445 -2.480042 -0.753747 -2.890360 -1.934533 4.148119 -27.829581 44.017420 15.054626 -24.719987 5.032014 0.000000 0.000000 0.000000 -7.201753 -0.987675 17.611511 3.407436 -1.366079 -4.997905 2.077808 -0.633944 -6.337405 -2.638831 0.636331 -0.399274 5.195544 -0.255268 6.734240 0.000000 0.000000 0.000000 9.321223 13.502310 6.902776 -71.607828 -6.395013 25.388174 -26.220034 -75.004316 0.635072 -0.507238 -14.749196 0.313410 -0.496541 -14.759252 0.000000 0.000000 0.000000 0.000000 0.000000 0.000000 0.000000 -4.853017 -18.334068 5.081105 67.637676 6.280791 20.229754 26.782860 67.666186 0.367018 0.688849 11.514465 0.181981 0.683000 11.519421 0.000000 0.000000 0.000000 0.000000 0.000000 0.000000 0.000000 
-2.203694 16.659650 23.881796 2.394802 5.760543 10.500448 -3.854325 4.416903 -7.164884 -18.928312 -1.201306 -2.414711 -8.047558 -11.928985 -30.782456 0.021949 9.406385 20.658638 0.000000 0.000000 0.000000 14.165758 2.228571 -2.112215 -0.870336 -2.760796 -2.120824 3.780697 -27.586405 43.857532 15.419783 -26.307211 7.267334 0.000000 0.000000 0.000000 -7.333208 -0.830736 17.764540 3.224316 -1.381160 -4.780192 1.997216 -0.554576 -6.811700 -2.871552 0.675908 0.208475 5.220825 -0.285094 7.039863 0.000000 0.000000 0.000000 9.340027 13.948278 6.685857 -71.534067 -6.556875 25.948986 -26.985773 -74.559568 0.657606 -0.681588 -14.722601 0.324827 -0.674397 -14.733306 0.000000 0.000000 0.000000 0.000000 0.000000 0.000000 0.000000 -4.723859 -18.858658 4.746865 67.543046 6.051131 21.012331 26.569101 68.651071 0.384240 0.723256 11.714182 0.190522 0.717910 11.719395 0.000000 0.000000 0.000000 0.000000 0.000000 0.000000 0.000000 
-2.208169 16.691983 24.071002 2.642199 5.542569 10.707450 -3.513371 4.403123 -7.556830 -19.626318 -0.961434 -1.965649 -7.765526 -11.500342 -29.728324 -0.065084 8.366584 18.317449 0.000000 0.000000 0.000000 14.189076 1.970865 -1.683796 -1.009787 -2.601759 -2.387914 3.400313 -27.300651 43.669826 15.712320 -27.851864 9.449570 0.000000 0.000000 0.000000 -7.460535 -0.669668 17.866003 3.067957 -1.386275 -4.593697 1.905093 -0.473922 -7.240299 -3.042429 0.710301 0.759619 5.228023 -0.309429 7.292424 0.000000 0.000000 0.000000 9.327483 14.331966 6.499489 -71.462350 -6.708437 26.448805 -27.636015 -74.158111 0.677379 -0.824851 -14.702896 0.334834 -0.820601 -14.714131 0.000000 0.000000 0.000000 0.000000 0.000000 0.000000 0.000000 -4.635131 -19.303618 4.439825 67.478719 5.792805 21.792088 26.215104 69.767223 0.401865 0.740233 11.931502 0.199249 0.735262 11.936969 0.000000 0.000000 0.000000 0.000000 0.000000 0.000000 0.000000 
-2.212344 16.723211 24.253103 2.874510 5.339706 10.885501 -3.197072 4.377997 -7.938591 -20.275453 -0.720771 -1.528031 -7.490840 -11.067093 -28.683811 -0.126072 7.396357 16.080925 0.000000 0.000000 0.000000 14.243858 1.777457 -1.287944 -1.180887 -2.518851 -2.581070 3.034127 -27.033269 43.429581 15.945420 -29.342093 11.523561 0.000000 0.000000 0.000000 -7.613649 -0.537870 17.962282 2.949640 -1.387452 -4.457994 1.841412 -0.414473 -7.541241 -3.159209 0.741572 1.163683 5.229046 -0.327235 7.485253 0.000000 0.000000 0.000000 9.377168 14.585722 6.352876 -71.425519 -6.864753 26.831589 -27.939960 -74.022456 0.690280 -0.895183 -14.723476 0.341312 -0.892420 -14.735033 0.000000 0.000000 0.000000 0.000000 0.000000 0.000000 0.000000 -4.637305 -19.619581 4.161550 67.515908 5.557456 22.503662 25.731690 70.942198 0.418271 0.734430 12.148623 0.207355 0.729638 12.154314 0.000000 0.000000 0.000000 0.000000 0.000000 0.000000 0.000000 
-2.215765 16.752782 24.427859 3.092163 5.150102 11.034002 -2.906466 4.338006 -8.306692 -20.870774 -0.476105 -1.096980 -7.231516 -10.636551 -27.668832 -0.166005 6.501581 13.963351 0.000000 0.000000 0.000000 14.328973 1.650416 -0.925635 -1.381469 -2.507645 -2.698816 2.679377 -26.788553 43.147931 16.113937 -30.761235 13.483840 0.000000 0.000000 0.000000 -7.790436 -0.438011 18.049214 2.864774 -1.383852 -4.366161 1.805257 -0.376981 -7.711315 -3.230580 0.769969 1.415772 5.228243 -0.339426 7.626238 0.000000 0.000000 0.000000 9.497051 14.706079 6.244831 -71.424097 -7.023895 27.097330 -27.880691 -74.175416 0.696212 -0.891554 -14.787049 0.344209 -0.888793 -14.798737 0.000000 0.000000 0.000000 0.000000 0.000000 0.000000 0.000000 -4.730228 -19.803760 3.911171 67.663764 5.350672 23.135651 25.116027 72.170395 0.433197 0.703753 12.363030 0.214710 0.698896 12.368907 0.000000 0.000000 0.000000 0.000000 0.000000 0.000000 0.000000 
-2.218862 16.780362 24.594751 3.295176 4.971114 11.154083 -2.642363 4.280921 -8.658185 -21.408658 -0.225813 -0.670973 -6.986289 -10.215242 -26.701901 -0.189442 5.685931 11.978818 0.000000 0.000000 0.000000 14.442041 1.588108 -0.597124 -1.607211 -2.560871 -2.744358 2.338237 -26.570304 42.834428 16.217343 -32.096152 15.325340 0.000000 0.000000 0.000000 -7.987749 -0.370661 18.124304 2.808493 -1.374647 -4.311946 1.794783 -0.360965 -7.754568 -3.264916 0.795404 1.520007 5.227920 -0.346926 7.722711 0.000000 0.000000 0.000000 9.689919 14.697758 6.172597 -71.455925 -7.186024 27.241092 -27.461482 -74.612345 0.694943 -0.814486 -14.890960 0.343407 -0.810201 -14.902581 0.000000 0.000000 0.000000 0.000000 0.000000 0.000000 0.000000 -4.909940 -19.860169 3.686889 67.923289 5.176534 23.679697 24.371098 73.442490 0.446414 0.647064 12.571988 0.221195 0.641861 12.578009 0.000000 0.000000 0.000000 0.000000 0.000000 0.000000 0.000000 
-2.222193 16.805491 24.753622 3.483896 4.801252 11.244481 -2.403137 4.201979 -8.990405 -21.887260 0.034262 -0.241932 -6.752559 -9.811124 -25.805592 -0.200030 4.952103 10.137280 0.000000 0.000000 0.000000 14.582832 1.596024 -0.304753 -1.856664 -2.677030 -2.712367 2.012894 -26.384668 42.495149 16.257191 -33.337759 17.048955 0.000000 0.000000 0.000000 -8.206678 -0.338536 18.184926 2.778874 -1.358629 -4.294406 1.810805 -0.368541 -7.663318 -3.266389 0.816802 1.467092 5.229171 -0.350082 7.776143 0.000000 0.000000 0.000000 9.965011 14.554931 6.137150 -71.520605 -7.354467 27.233897 -26.651101 -75.344000 0.684996 -0.654623 -15.033225 0.338155 -0.647014 -15.044514 0.000000 0.000000 0.000000 0.000000 0.000000 0.000000 0.000000 -5.181169 -19.780483 3.490857 68.304444 5.042809 24.121936 23.491029 74.756201 0.457584 0.561261 12.772829 0.226641 0.555372 12.778935 0.000000 0.000000 0.000000 0.000000 0.000000 0.000000 0.000000 
-2.222589 16.830778 24.908653 3.664501 4.603059 11.335525 -2.189119 4.154721 -9.310906 -22.338307 0.275677 0.130386 -6.551222 -9.385966 -24.862918 -0.204890 4.250030 8.333891 0.000000 0.000000 0.000000 14.727433 1.571243 0.011546 -2.117097 -2.775612 -2.722118 1.677460 -26.184625 42.160011 16.213464 -34.477351 18.710005 0.000000 0.000000 0.000000 -8.418166 -0.311022 18.214089 2.756019 -1.345145 -4.280839 1.832827 -0.378352 -7.579449 -3.272087 0.834956 1.415978 5.230559 -0.352592 7.818169 0.000000 0.000000 0.000000 10.200973 14.430418 6.114003 -71.576752 -7.500002 27.192270 -25.907345 -75.989876 0.674442 -0.504250 -15.155574 0.332617 -0.493416 -15.166487 0.000000 0.000000 0.000000 0.000000 0.000000 0.000000 0.000000 -5.401405 -19.714407 3.326123 68.609779 4.951233 24.444178 22.769282 75.777089 0.465732 0.486527 12.924962 0.230599 0.479998 12.931110 0.000000 0.000000 0.000000 0.000000 0.000000 0.000000 0.000000 
-2.220338 16.856205 25.060170 3.837001 4.373857 11.426743 -1.999249 4.142208 -9.617651 -22.763965 0.497479 0.446048 -6.378488 -8.940260 -23.873965 -0.204943 3.576696 6.567794 0.000000 0.000000 0.000000 14.874411 1.512282 0.352406 -2.388454 -2.854138 -2.773907 1.333887 -25.970647 41.829836 16.085487 -35.508930 20.318092 0.000000 0.000000 0.000000 -8.622490 -0.288681 18.209262 2.739847 -1.335616 -4.271690 1.862219 -0.391584 -7.502611 -3.284011 0.849044 1.365522 5.231989 -0.354504 7.848292 0.000000 0.000000 0.000000 10.393615 14.328015 6.103553 -71.624363 -7.617862 27.122644 -25.239512 -76.547258 0.663725 -0.366291 -15.258350 0.327021 -0.352424 -15.268862 0.000000 0.000000 0.000000 0.000000 0.000000 0.000000 0.000000 -5.563016 -19.662099 3.200692 68.829447 4.904555 24.658288 22.242990 76.491659 0.471166 0.429343 13.028689 0.233231 0.422309 13.034852 0.000000 0.000000 0.000000 0.000000 0.000000 0.000000 0.000000 
